<svg xmlns="http://www.w3.org/2000/svg" viewBox="0 0 1920.5 1127.5"><defs><style>.cls-1{fill:#dbd8d8;}.cls-2{fill:#b2c58c;}.cls-3{fill:#503d00;stroke:#fff;stroke-miterlimit:10;stroke-width:4px;}.cls-4{fill:#14b38c;}.cls-5{fill:#fff;}.cls-6{fill:#b3bf95;}.cls-7{fill:#5e5c00;}.cls-8{font-size:28px;font-family:Meiryo;}.cls-9{fill:#a4a2a2;}</style></defs><title>トップページイラスト</title><g id="地形"><path class="cls-1" d="M-.5,738.12a213.8,213.8,0,0,0,68.71-20c38.3-18.78,42.24-35.68,89.7-70.62C182.38,629.44,214,606.63,260,594c20.42-5.59,41.67-11.42,69.66-7.64,9.75,1.32,58.27,7.87,86.84,42,6,7.17,12.1,16.71,25.77,26.72a113.23,113.23,0,0,0,32.44,16.23c29,9.63,58.07,13.35,107.84,17.17,48.6,3.74,48.87,2.35,60.12,5.73,15,4.51,23.55,9.7,67.75,34.35,29.28,16.33,43.91,24.49,44.85,24.81,44.12,15.21,95.18.82,128.83-23.85,17-12.44,13.13-15.48,32.45-32.45,40.54-35.61,85.59-47,112.6-53.44,35.67-8.56,91.77-22,149.83,0,53.42,20.28,50.23,48.51,114.51,75.39,25,10.46,61.13,25.56,104,19.09,33.35-5,62.63-27.22,121.19-71.58,53-40.18,65.76-57.54,104-68.7,27.69-8.08,53.56-8.47,66.8-8.59,35.88-.33,54.64-.5,73.48,11.45,15.35,9.73,17.11,18.85,46.76,42.94,9.46,7.69,103.94,31.16,109.27,34.83,0,97.34,1,525,1,622.36H-.5Z" transform="translate(0.5 -173.33)"/></g><g id="葉"><path class="cls-2" d="M1696.7,486.66A144.51,144.51,0,0,1,1649.94,522c-9.39,4.43-27.66,12.82-52.49,13.36-6.85.15-58.89.45-90.66-39.13a98.41,98.41,0,0,1-16.22-29.58,82.74,82.74,0,0,1-43.9-16.22c-9-6.8-25.58-19.4-25.76-38.17-.21-21.5,21.29-35.83,27.67-40.08a72.23,72.23,0,0,1,31.49-11.45c-6.57-3-23.49-11.91-34.35-31.5-3.18-5.73-12.1-21.8-8.59-40.08,4.23-22,24-34.27,40.08-43.89,37.94-22.73,77.8-24.39,102.11-22.91a77.9,77.9,0,0,1,20-29.58c38.26-34.58,97.09-12.66,100.2-11.45,9.29,3.62,33.91,13.21,46.76,38.17a70,70,0,0,1,6.68,20,108.08,108.08,0,0,1,37.22-11.45c30.5-3.55,54.08,7.13,63.93,12.41,13.19,7.06,32.95,17.63,42,41,7.9,20.44,3.24,39.32,1,46.76,4,3.79,19.32,19.23,21,43.9.33,4.77,2.1,30.94-18.13,49.62-16.32,15.07-36.21,15.34-41,15.27a91.59,91.59,0,0,1-1.91,26.72c-1.44,6.43-6.49,29-24.81,44.85-23.89,20.6-55.32,16.7-66.8,15.27C1727.58,519.18,1704,494.8,1696.7,486.66Z" transform="translate(0.5 -173.33)"/></g><g id="木"><path class="cls-3" d="M240,633.14c-3.18,9.23-6.84,18.93-10,28.16-1,3.81-3,6.52-1.43,12.88,1.84,7.68,9,14.31,17.18,14.31,7.42,0,12.3-5.49,13.36-6.68a17.29,17.29,0,0,0,4.77-10.49c.49-8.21-2.39-10-5.25-14.8C252.86,648.57,245.71,641.1,240,633.14Z" transform="translate(0.5 -173.33)"/><path class="cls-4" d="M452.31,735.73c-.61-.82,9.48-8.54,22.9-22.9,8.24-8.82,9.64-11.47,10.5-14.32,2.16-7.17.27-13.62-2.86-23.85-4.48-14.6-8.46-16.83-7.64-24.82.54-5.2,2.69-8.73,6.68-15.26,3.65-6,7.9-12.93,16.22-18.14,9.59-6,19.59-6.53,22.91-6.68,2.1-.09,6.69,1.1,13.16.71a37.68,37.68,0,0,0,5.92-.71,30.9,30.9,0,0,0,13.36-6.68A57.18,57.18,0,0,1,542,630.76c-1.28,1.64-15.1,18.8-38.65,21.47a55.5,55.5,0,0,1-12.4,0c-.37-8.18,2.43-13.19,3.81-15.27,4.5-6.77,11.87-9.49,17.18-11.45,6.27-2.31,8.72-1.75,15.27-4.77a51.19,51.19,0,0,0,9.54-5.73,190.31,190.31,0,0,0-21,4.77c-9,2.61-12,4.23-14.32,5.73A35.86,35.86,0,0,0,491,636c-1.72,2.71-4.45,7-4.77,12.4-.49,8.21,5.14,10.27,12.4,26.72,3.85,8.72,4.54,13.27,4.77,15.27a43.34,43.34,0,0,1-.95,15.27,80.79,80.79,0,0,1,20,22,72.05,72.05,0,0,0-26.72-16.22c-.11,2.39-.13,4.94,0,7.63a83.65,83.65,0,0,0,2.86,18.13,130.19,130.19,0,0,1-9.54-25.76,104.79,104.79,0,0,1-11.45,9.54c-3,2.17-5.56,3.7-10.5,6.68C457.67,733.3,452.72,736.28,452.31,735.73Z" transform="translate(0.5 -173.33)"/><path class="cls-5" d="M467.1,727.62c4.94-3,7.47-4.51,10.5-6.68a104.79,104.79,0,0,0,11.45-9.54,130.19,130.19,0,0,0,9.54,25.76A83.65,83.65,0,0,1,495.73,719c-.13-2.69-.11-5.24,0-7.63a72.05,72.05,0,0,1,26.72,16.22,80.79,80.79,0,0,0-20-22,43.34,43.34,0,0,0,.95-15.27c-.2-1.75-.75-5.45-3.46-12.18-5.95-1.31-11.68-2.78-17.33-4.45l.28.89c3.13,10.23,5,16.68,2.86,23.85-.86,2.85-2.26,5.5-10.5,14.32-13.42,14.36-23.51,22.08-22.9,22.9C452.72,736.28,457.67,733.3,467.1,727.62Z" transform="translate(0.5 -173.33)"/><path class="cls-6" d="M752,793l-18.13,4.77,22.91-10.5a69.13,69.13,0,0,0,11.45-12.4,56,56,0,0,0,8.59-16.23c3.77-12,1.61-22.59,0-30.53-1.76-8.62-2.94-7.77-5.73-19.09-3.51-14.23-2.17-17.68-4.77-25.77-4.31-13.39-13.1-21-16.22-23.85-3.59-3.25-8-7.13-14.8-9.07-3.45-1-6.18-1.09-13.36-1-5.83.11-13.62.36-22.9,1,10.06,1.08,17.67,1.62,22.9,1.91A55.25,55.25,0,0,1,740,656.05a19.31,19.31,0,0,1,4.77,2.86c1.31,1.07,6.35,5.18,5.72,9.54-.44,3.11-3.57,5-4.77,5.73-10.38,6.29-26.73-.69-29.58-1.91-17.7-7.56-27.29-22.6-31.49-30.54a55.7,55.7,0,0,0,12.4,1.91c9.39.37,11.68-2,21.95-2.86,8-.69,17.56-1.51,25.77,3.82,2.18,1.41,4.35,3.82,8.59,8.58,5.84,6.56,10.33,12.24,13.36,16.23h2.86a54.65,54.65,0,0,1,3.82-8.59,53.62,53.62,0,0,1,17.17-19.09c9.31-6.2,18.28-7.62,24.81-8.59,10.24-1.51,12.43.37,21-.95,6.59-1,15.18-3.66,24.81-10.5a77.1,77.1,0,0,1-6.68,23.86,76.24,76.24,0,0,1-25.77,30.54c-7.47,5.12-19.31,13.25-34.35,11.45a37.94,37.94,0,0,1-10.5-2.86,32.17,32.17,0,0,1,2.87-14.32A32.94,32.94,0,0,1,798.24,657c6.8-4.78,11.26-4.44,21-7.63a96.45,96.45,0,0,0,21.95-10.5,57,57,0,0,1-19.09,5.73c-5.67.61-8.8,0-14.31,1.9-4.29,1.48-7,3.43-11.45,6.68-7.17,5.21-11.67,8.48-14.32,14.32-2.2,4.88-2.07,9.24-1.9,13.36.22,5.39,1.39,11,9.54,28.63,7.18,15.48,8.77,16.47,10.5,23.85,1.63,7,2.85,12.17,1.9,19.09-1,7.32-3.63,10.83-1.9,17.18a21.41,21.41,0,0,0,4.77,8.59c1,1.12,2.57,2.5,6.68,4.77A73.79,73.79,0,0,0,825,788.69a22,22,0,0,1-19.09-4.77,51,51,0,0,1,8.59,26.72,90.38,90.38,0,0,0-22.9-35.31,22.62,22.62,0,0,0-1.91,5.73,22.94,22.94,0,0,0,0,8.59,16.61,16.61,0,0,0,3.82,3.81,16.91,16.91,0,0,0,6.68,2.87,9.51,9.51,0,0,1-6.68,0,9.14,9.14,0,0,1-3.82-2.87l4.77,23.86a141.77,141.77,0,0,1-14.31-38.17,140.19,140.19,0,0,1-13.36,12.41,141.77,141.77,0,0,1-35.31,21A103,103,0,0,0,752,793Z" transform="translate(0.5 -173.33)"/><path class="cls-5" d="M776.81,758.47l0,.16a56,56,0,0,1-8.59,16.23,69.13,69.13,0,0,1-11.45,12.4l-22.91,10.5L752,793a103,103,0,0,1-20.51,19.56,141.77,141.77,0,0,0,35.31-21,140.19,140.19,0,0,0,13.36-12.41,141.77,141.77,0,0,0,14.31,38.17l-4.77-23.86a9.14,9.14,0,0,0,3.82,2.87,9.51,9.51,0,0,0,6.68,0,16.91,16.91,0,0,1-6.68-2.87,16.61,16.61,0,0,1-3.82-3.81,22.94,22.94,0,0,1,0-8.59,22.62,22.62,0,0,1,1.91-5.73,90.38,90.38,0,0,1,22.9,35.31,51,51,0,0,0-8.59-26.72A22,22,0,0,0,825,788.69,73.79,73.79,0,0,1,811.6,783c-4.11-2.27-5.64-3.65-6.68-4.77a21.41,21.41,0,0,1-4.77-8.59c-1.08-4-.46-6.81.4-10.17A128.22,128.22,0,0,1,776.81,758.47Z" transform="translate(0.5 -173.33)"/><path class="cls-7" d="M1078.32,650.8a146.7,146.7,0,0,1-23.86,19.08c-10.84,7-20.19,10.9-30.53,15.27-9.2,3.89-17.11,6.68-22.91,8.59l35.79-24.33-28.63,4.77,38.17-12.41,17.18-20a117.51,117.51,0,0,0-17.18,3.82A118.76,118.76,0,0,0,1018.68,658a86.17,86.17,0,0,1,50.57-30.54,96.22,96.22,0,0,0,10.5-21.95,83.26,83.26,0,0,0,4.77-27.67c0-9.08-.09-18.24-5.72-27.68a42.2,42.2,0,0,0-16.23-15.27,34.58,34.58,0,0,1,15.27,7.64,34.21,34.21,0,0,1,7.64,9.54,48.84,48.84,0,0,0-2.87-24.81c-6.5-16.41-20.07-23.85-23.85-25.77a28.83,28.83,0,0,1-8.59,3.82c-10.51,2.69-19.74-1.56-26.72-4.77a67.33,67.33,0,0,1-17.18-11.45,21.6,21.6,0,0,0,9.54.95c8.69-1.17,9.92-7.29,19.09-10.5a27.21,27.21,0,0,1,21.95,1.91c1.76,1,5.51,3.58,6.68,7.64.13.46.69,2.39,0,2.86s-2.27-.85-3.82-1.91a31.65,31.65,0,0,0-8.59-3.82c-5.11-1.4-9.81-.2-14.31,1a42,42,0,0,0-5.73,1.91c2.72-.1,6.67-.17,11.45,0,5.82.2,8.73.3,11.46.95,5.68,1.36,9.23,4.34,15.26,9.54a100,100,0,0,1,14.32,15.27,112.65,112.65,0,0,0-1.91-19.08,123.75,123.75,0,0,0-7.63-24.81,160.85,160.85,0,0,0-7.64-16.23,29.57,29.57,0,0,1-12.4-1.91c-10.29-4-15.26-12.95-18.14-18.13a52.14,52.14,0,0,1-5.72-16.22,29,29,0,0,0,8.59,4.77c5.38,1.87,7.38.7,14.31,1.91,4.16.72,9.79,1.76,15.27,5.73s7.15,8.17,7.63,9.54,2,5.58,0,7.63a3,3,0,0,1-2.86,1c-1.13-.38-1.54-1.82-1.91-2.87a26.58,26.58,0,0,0-4.77-7.63c-1.89-2.19-3.94-3.11-7.63-4.77-2.58-1.16-3.87-1.39-8.59-2.86-2.56-.8-5.44-1.75-8.59-2.87a104.57,104.57,0,0,0,10.5,5.73c4.93,2.33,6.82,2.76,9.54,4.77,2.51,1.85,3.86,3.68,7.63,9.54,5.69,8.84,8.53,13.25,10.5,17.18a119.46,119.46,0,0,1,6.68,16.22,116.68,116.68,0,0,1,2.86-12.4,74.31,74.31,0,0,1,4.78-13.36c4.69-9.57,5.72-11.45,5.72-11.45a11.37,11.37,0,0,0,1.91-5.73,9.39,9.39,0,0,0-2.86-6.68c-.91-.78-1.51-.89-3.82-1.91a63.86,63.86,0,0,1-5.73-2.86,34.81,34.81,0,0,1,5.73,4.77,15.24,15.24,0,0,1,2.86,3.82c.77,1.48,1.63,3.16,1,4.77a3.91,3.91,0,0,1-1.91,1.91c-2.55,1.12-5.67-1.17-6.68-1.91-.64-.47-3.53-2.68-5.73-8.59a32.6,32.6,0,0,1-1.91-13.36,34.52,34.52,0,0,0,7.64,4.77c3.93,1.78,6.7,2.09,9.54,4.77a14.52,14.52,0,0,1,2.86,3.82,66.14,66.14,0,0,1,5.73-4.77c3.45-2.55,5.89-4.36,9.54-5.73a33.75,33.75,0,0,1,10.5-1.91c3.91-.2,4.35.32,6.68,0,2.6-.35,6.3-1.58,10.5-5.72a25.19,25.19,0,0,1-1,13.36c-1.87,5.1-5,8.07-9.54,12.4-3.88,3.7-7.09,6.75-12.41,8.59a20,20,0,0,1-11.45,1,17.4,17.4,0,0,1-2.86-1,29.22,29.22,0,0,1,1.91-6.68c1-2.26,2.76-6.55,6.68-9.54,2.88-2.2,4.39-1.77,9.54-3.82a50.38,50.38,0,0,0,10.5-5.72,70,70,0,0,1-8.59,2.86c-3.71,1-5,1-7.63,1.91a29,29,0,0,0-8.59,4.77c-4,3.51-5.3,8.07-6.68,13.36-4.4,16.8-6.6,25.22-6.68,25.77a141.88,141.88,0,0,0-1,30.53,149.28,149.28,0,0,0,1.91,15.27,111.27,111.27,0,0,1,23.86-28.63c5.75-5.14,8.71-7.72,12.4-8.59,3.37-.78,5.36-.18,11.46-.95a67.64,67.64,0,0,0,9.54-1.91,48.13,48.13,0,0,1-9.54,0c-3.85-.39-6.07-1.11-10.5-.95a13.83,13.83,0,0,0-5.73.95,15,15,0,0,0-5.72,4.77c-1.34,2-1.63,3.67-2.87,3.82a2.22,2.22,0,0,1-1.9-1c-1.66-2.26,1.5-7,1.9-7.64a18.05,18.05,0,0,1,8.59-6.68c2.21-.82,4.38-1.17,11.45-.95,7.63.23,10.21.79,14.32.95a59.41,59.41,0,0,0,17.18-1.91,59.2,59.2,0,0,1-6.68,9.55,52,52,0,0,1-10.5,9.54,46.71,46.71,0,0,1-11.45,5.72,30,30,0,0,1-10.5,1.91,27,27,0,0,1-9.54-1.91c-1.54,1.9-3.54,4.47-5.73,7.64a124,124,0,0,0-8.59,14.31c-3.34,6.58-5,9.86-5.72,13.36-1.74,8.57,0,18.13,0,18.13h0a10.41,10.41,0,0,0,1.91,1c1.91.6,5-5.53,8.58-9.54a30.11,30.11,0,0,1,11.46-7.64c4.58-1.62,8.46-1.4,16.22-1,6.25.36,8.4,1.17,14.31,1a58.71,58.71,0,0,0,8.59-1c-1.32,1.86-3.26,4.52-5.72,7.63-5.39,6.8-8.17,10.27-12.41,13.36a34.48,34.48,0,0,1-11.45,5.73,34,34,0,0,1-20-1,21,21,0,0,1,3.82-8.59,20.49,20.49,0,0,1,8.58-6.68c4.61-1.85,6.65-.55,14.32-1.9a57.31,57.31,0,0,0,7.63-1.91,22.77,22.77,0,0,1-10.49,1c-2.73-.43-4.52-1.3-7.64-1a15.44,15.44,0,0,0-5.72,1.91c-7.87,4.13-13.11,11.58-14.32,13.36a58.91,58.91,0,0,0-6.68,13.36c-3.31,9.11-3.9,16.19-4.77,27.67-1.44,19.08.45,25.79,1.91,29.58,2.42,6.31,5.37,9,7.63,10.5s4.26,2,7.64,2.86c4.94,1.31,7.35,1.17,12.4,1.91s8.38,1.24,12.41,2.86a37.67,37.67,0,0,1,14.31,10.5,40.39,40.39,0,0,1,5.73,8.59,103.84,103.84,0,0,0-9.54-5.73,115.38,115.38,0,0,0-25.77-9.54,125.06,125.06,0,0,0-16.22-2.86,58.73,58.73,0,0,0,5.72,6.68,62.38,62.38,0,0,0,16.23,11.45,83.78,83.78,0,0,0,21,7.63,77.65,77.65,0,0,1-31.49-8.58c2,4.49,3.58,8.39,4.77,11.45,3.61,9.26,4.52,13.07,4.77,17.17a37.38,37.38,0,0,1,0,4.78,102.16,102.16,0,0,0-5.72-12.41,104.92,104.92,0,0,0-14.32-20,106,106,0,0,0-13.36-12.41,22.89,22.89,0,0,0-2.86,4.78,24.34,24.34,0,0,0-1.91,7.63,30,30,0,0,0,0,6.68l15.27,7.63L1095,669.41c1,2.8,1.93,5.66,2.86,8.59,2.2,6.88,4.09,13.57,5.73,20a67.65,67.65,0,0,1-11.45-18.14c-2.68-6.33-3.47-11.1-7.64-19.08A80,80,0,0,0,1078.32,650.8Z" transform="translate(0.5 -173.33)"/><path class="cls-1" d="M1647.55,605.47a172.7,172.7,0,0,0-63.94,25.77c10.23-11.24,19.41-20.1,26.72-26.72,6.47-5.86,11.59-10.09,19.09-11.46,4.14-.75,5.62,0,11.45-.95.46-.07,11.5-1.89,17.18-5.73,8.52-5.75,8.42-18.35,9.54-33.4,2-27.2,4.71-17.29,7.64-50.57,0,0,4.26-48.53-7.64-79.21-1.08-2.78-2.94-6.48-6.68-8.59-5-2.81-10.69-1.35-12.4-.95-9.56,2.21-22.92-.12-49.63-4.77-27-4.71-51.26-15.19-51.53-15.27v-5.73a167.57,167.57,0,0,0,16.22,5.73c29.06,8.58,55.65,7.71,75.39,4.77a194.62,194.62,0,0,1-34.35-42c-10.32-17-15.81-32.22-20-43.9A307.33,307.33,0,0,1,1575,281h5.72A234.68,234.68,0,0,0,1617,346.86a64.22,64.22,0,0,1,14.32-32.45,164.12,164.12,0,0,0-8.59,42A170.33,170.33,0,0,0,1681,406a377.16,377.16,0,0,1,8.59-105l2.86,2.87,1,41a116.68,116.68,0,0,1,36.26-34.35q-5.71,7.14-11.45,15.26a310.15,310.15,0,0,0-22,36.27,115.66,115.66,0,0,0,9.54,50.57,257,257,0,0,0,64.89-30.53,187.9,187.9,0,0,0,20-52.49l2.87,1.91a136.23,136.23,0,0,1-2.87,26.72,133.32,133.32,0,0,1-3.81,14.31l26.72-17.17,12.4-8.59a131.58,131.58,0,0,1-6.68,11.45c-17.62,27-40.73,40.86-52.48,47.71a181.06,181.06,0,0,1-46.76,19.09c-.65,8.11-1.43,19.6-1.91,33.4-.68,19.71-1.45,44.53,1.91,75.39,1.82,16.75,4.58,32.66,11.45,50.58.77,2,1.44,3.65,1.91,4.77a110.37,110.37,0,0,1,21,5.72,84.48,84.48,0,0,1,19.09,9.55c5.14,3.6,14.77,11.54,22,26.72a136.56,136.56,0,0,0-23.86-14.32,138,138,0,0,0-45.81-12.4,46,46,0,0,0,5.73,10.49c1.59,2.18,7,9.18,24.81,18.13a158.62,158.62,0,0,0,26.72,10.5,94.85,94.85,0,0,1-45.81-12.4,235.21,235.21,0,0,1,8.59,21.94,238.93,238.93,0,0,1,8.59,33.4c-7.53-14.28-14.37-26.47-20-36.26-5.79-10-9.57-16.17-16.22-22.9A83.88,83.88,0,0,0,1701,614.06a47.37,47.37,0,0,0-4.77,29.58c5.6,3.22,11.65,6.43,18.13,9.54,3.57,1.72,7.07,3.3,10.5,4.78a41.53,41.53,0,0,1-11.45-1,42,42,0,0,1-16.23-7.63c1.09,6.47,2.35,13.16,3.82,20,2.31,10.79,4.89,21,7.64,30.53-12.06-14.38-16.92-27.08-19.09-36.26-1.88-7.93-2.69-17.21-8.59-29.58a88.24,88.24,0,0,0-8.59-14.32c-3,2.58-7.22,6.23-12.4,10.5-6.54,5.39-25.47,21-43,32.45a274.77,274.77,0,0,1-61.07,29.58q10.79-7.17,22-15.27c12.72-9.26,24.48-18.55,35.31-27.67a247.84,247.84,0,0,0-25.77,4.77c-8.35,2-16,4.3-22.9,6.68a136.31,136.31,0,0,1,59.16-21,61.1,61.1,0,0,0,18.14-20A59.87,59.87,0,0,0,1647.55,605.47Z" transform="translate(0.5 -173.33)"/><path class="cls-5" d="M1555.94,692.31A274.77,274.77,0,0,0,1617,662.73c17.48-11.45,36.41-27.06,43-32.45,5.18-4.27,9.43-7.92,12.4-10.5A88.24,88.24,0,0,1,1681,634.1c5.9,12.37,6.71,21.65,8.59,29.58,2.17,9.18,7,21.88,19.09,36.26-2.75-9.55-5.33-19.74-7.64-30.53-1.47-6.88-2.73-13.57-3.82-20A42,42,0,0,0,1713.4,657a41.53,41.53,0,0,0,11.45,1c-3.43-1.48-6.93-3.06-10.5-4.78-6.48-3.11-12.53-6.32-18.13-9.54a47.37,47.37,0,0,1,4.77-29.58,83.88,83.88,0,0,1,17.18,13.36c6.65,6.73,10.43,12.88,16.22,22.9,5.67,9.79,12.51,22,20,36.26a238.93,238.93,0,0,0-8.59-33.4,235.21,235.21,0,0,0-8.59-21.94,94.85,94.85,0,0,0,45.81,12.4,158.62,158.62,0,0,1-26.72-10.5c-17.8-8.95-23.22-15.95-24.81-18.13a46,46,0,0,1-5.73-10.49,138,138,0,0,1,45.81,12.4,136.47,136.47,0,0,1,23.62,14.15c-16.3-15.12-19.87-22.55-32.21-30.37-18.84-12-37.6-11.78-73.48-11.45-13.24.12-39.11.51-66.8,8.59-2.59.75-5.06,1.54-7.44,2.35-1.6,1.31-3.24,2.76-5,4.33-7.31,6.62-16.49,15.48-26.72,26.72a172.7,172.7,0,0,1,63.94-25.77,59.87,59.87,0,0,1-5.72,14.31,61.1,61.1,0,0,1-18.14,20,136.31,136.31,0,0,0-59.16,21c6.9-2.38,14.55-4.68,22.9-6.68a247.84,247.84,0,0,1,25.77-4.77c-10.83,9.12-22.59,18.41-35.31,27.67Q1566.75,685.16,1555.94,692.31Z" transform="translate(0.5 -173.33)"/><path class="cls-5" d="M1023.93,685.15c10.34-4.37,19.69-8.32,30.53-15.27a146.7,146.7,0,0,0,23.86-19.08,80,80,0,0,1,6.2,10c4.17,8,5,12.75,7.64,19.08A67.65,67.65,0,0,0,1103.61,698c-1.64-6.47-3.53-13.16-5.73-20-.93-2.93-1.89-5.79-2.86-8.59l15.27,3.81L1095,665.59a30,30,0,0,1,0-6.68,24.34,24.34,0,0,1,1.91-7.63,22.89,22.89,0,0,1,2.86-4.78,106,106,0,0,1,13.36,12.41,104.92,104.92,0,0,1,14.32,20,102.16,102.16,0,0,1,5.72,12.41,37.38,37.38,0,0,0,0-4.78c-.25-4.1-1.16-7.91-4.77-17.17-1.19-3.06-2.78-7-4.77-11.45a77.65,77.65,0,0,0,31.49,8.58,83.78,83.78,0,0,1-21-7.63,62.38,62.38,0,0,1-16.23-11.45,58.73,58.73,0,0,1-5.72-6.68,125.06,125.06,0,0,1,16.22,2.86,115.38,115.38,0,0,1,25.77,9.54,103.84,103.84,0,0,1,9.54,5.73,40.39,40.39,0,0,0-5.73-8.59,37.67,37.67,0,0,0-14.31-10.5c-4-1.62-7.51-2.14-12.41-2.86s-7.46-.6-12.4-1.91c-3.38-.89-5.43-1.44-7.64-2.86-.25-.16-.5-.34-.77-.53-28.77.07-54.78,5.68-75.18,10.52A86.56,86.56,0,0,0,1018.68,658a118.76,118.76,0,0,1,27.67-12.41,117.51,117.51,0,0,1,17.18-3.82l-17.18,20-38.17,12.41,28.63-4.77L1001,693.74C1006.82,691.83,1014.73,689,1023.93,685.15Z" transform="translate(0.5 -173.33)"/></g><g id="キャプション"><text class="cls-8" transform="translate(413.49 711.43)">なにを？</text><text class="cls-8" transform="translate(719.99 683.43)">だれと？</text><text class="cls-8" transform="translate(1016.24 614.43)">どうやって？</text><ellipse class="cls-9" cx="275.74" cy="661.67" rx="99" ry="9"/><ellipse class="cls-9" cx="469.49" cy="729.67" rx="73.5" ry="9"/><ellipse class="cls-9" cx="775.99" cy="702.67" rx="73.5" ry="9"/><ellipse class="cls-9" cx="1101.5" cy="631.67" rx="87" ry="9"/><text class="cls-8" transform="translate(191.74 643.43)">がんばりたい</text></g></svg>